<svg xmlns="http://www.w3.org/2000/svg" width="44" height="50" viewBox="0 0 44 50">
  <!-- 背包组(与躯干融合):顶部天线突起+主包+白色盖板+红色发光散热 -->
  <path d="M4 9 L8 3.5 L10.5 9 Z" fill="#23262a" stroke="#16181b" stroke-width="2.4" stroke-linejoin="round"/>
  <g stroke="#16181b" stroke-width="3" stroke-linejoin="round">
    <path d="M2 12 Q1.5 8.5 5 8 L12 7.5 L13 38 Q8 39.5 4.5 37 Q1.5 34.5 2 28 Z" fill="#23262a"/>
  </g>
  <path d="M3.5 10.5 L11.5 10 L12 20 Q7 21.5 3.6 19.5 Z" fill="#e9edf1" stroke="#16181b" stroke-width="2" stroke-linejoin="round"/>
  <path d="M4 24 L11.5 23.5 M4 27 L11.5 26.6" stroke="#16181b" stroke-width="1.6" fill="none"/>
  <circle cx="7.5" cy="32" r="4.6" fill="#d5342c" opacity="0.32"/>
  <circle cx="7.5" cy="32" r="2.8" fill="#d5342c"/>
  <circle cx="8.1" cy="31.4" r="1.1" fill="#ff9a90"/>
  <!-- 躯干主甲(短而宽,大弧线) -->
  <g stroke="#16181b" stroke-width="3.5" stroke-linejoin="round" stroke-linecap="round">
    <path d="M14 8 L30 6.5 Q39.5 7 41 16 L40 28 Q39 35 32.5 37.5 L31 44.5 L17 44.5 L15 37 Q11.5 33.5 11.5 26 L13 12 Q13 8.5 14 8 Z" fill="#f2f5f7"/>
  </g>
  <!-- 大领口/肩甲弧 -->
  <path d="M15 9.5 Q23 4.5 33 8 L34.5 13 Q24 8.5 16 13.5 Z" fill="#e2e7ec" stroke="#16181b" stroke-width="2.4" stroke-linejoin="round"/>
  <!-- 阴影楔形(右下大块) -->
  <path d="M27 22 Q37 22 40.2 25 L40 28 Q39 35 32.5 37.5 L31 44.5 L24 44.5 Q25 32 27 22 Z" fill="#c4ccd3"/>
  <path d="M31.5 38 L31 44.5 L24 44.5 L24.5 39 Z" fill="#97a1aa"/>
  <!-- 腰部暗色内衬+髋部裙甲 -->
  <path d="M16 38 L32 38 L31 44.5 L17 44.5 Z" fill="#16181b"/>
  <path d="M14.5 37 Q13 44 18.5 45.5 L21 45 L20 37.5 Z" fill="#e9edf1" stroke="#16181b" stroke-width="2.2" stroke-linejoin="round"/>
  <path d="M28 37 Q32.5 39 31 45 L26.5 45.3 L26 37.5 Z" fill="#e9edf1" stroke="#16181b" stroke-width="2.2" stroke-linejoin="round"/>
  <!-- 青色拼块饰件 -->
  <g fill="#35c4e8" stroke="#16181b" stroke-width="1.5" stroke-linejoin="round">
    <path d="M31 15 L35.5 15 L35.5 18 L33.5 18 L33.5 20 L31 20 Z"/>
    <path d="M22 25 L25 25 L25 27 L27 27 L27 29.5 L22 29.5 Z"/>
    <path d="M17.5 17 L20 17 L20 21 L17.5 21 Z"/>
  </g>
  <path d="M29.4 31 L31 31 L31 32.2 L32.4 32.2 L32.4 33.8 L31 33.8 L31 35 L29.4 35 L29.4 33.8 L28 33.8 L28 32.2 L29.4 32.2 Z" fill="#d5342c" stroke="#16181b" stroke-width="1.2"/>
  <!-- 划痕 -->
  <path d="M18 14.5 L21.5 13.8 M15.5 24 L18 23.4 M34 24.5 L36.5 24" stroke="#97a1aa" stroke-width="1.2" fill="none"/>
</svg>
