<svg xmlns="http://www.w3.org/2000/svg" width="36" height="16" viewBox="0 0 36 16">
  <!-- 上臂内衬 -->
  <path d="M6 4.5 L16 4 L16 12 L6 11.5 Z" fill="#2a2d31" stroke="#16181b" stroke-width="2.4" stroke-linejoin="round"/>
  <!-- 前臂大护手(外扩) -->
  <g stroke="#16181b" stroke-width="3" stroke-linejoin="round" stroke-linecap="round">
    <path d="M14 3.5 Q23 2 27.5 3.8 Q29 6.5 27.5 12.2 Q22 14 14 12.5 Q12.5 8 14 3.5 Z" fill="#f2f5f7"/>
  </g>
  <path d="M22 4 Q26.5 3.5 27.5 5.5 Q28.3 8.5 27.3 11.5 L23.5 12.5 Q24.5 8 22 4 Z" fill="#c4ccd3"/>
  <!-- 医疗十字牌(参考图同位:前臂) -->
  <rect x="16" y="5" width="6" height="6" rx="1.2" fill="#ffffff" stroke="#16181b" stroke-width="1.5"/>
  <path d="M18.2 6 L19.8 6 L19.8 7.2 L21 7.2 L21 8.8 L19.8 8.8 L19.8 10 L18.2 10 L18.2 8.8 L17 8.8 L17 7.2 L18.2 7.2 Z" fill="#d5342c"/>
  <!-- 大手套 -->
  <g stroke="#16181b" stroke-width="2.6" stroke-linejoin="round">
    <path d="M27.5 3.6 Q33.5 3 34.8 6 Q35.6 9.5 33.5 12 Q30 13.6 27.5 12.4 Z" fill="#1c1f23"/>
  </g>
  <path d="M29.5 6 L33 6.2" stroke="#454a50" stroke-width="1.6"/>
  <!-- 大肩甲(最后画,压住上臂根) -->
  <g stroke="#16181b" stroke-width="3" stroke-linejoin="round">
    <path d="M1.5 8.5 Q1 2.8 8 2.2 Q14.5 1.8 15.5 7.5 Q16 12.8 10 13.8 Q2.5 14.5 1.5 8.5 Z" fill="#f2f5f7"/>
  </g>
  <path d="M4 5 Q8 3.2 12.5 5" fill="none" stroke="#b9c2c9" stroke-width="1.6"/>
  <path d="M10 11 Q13.5 10.5 14.8 8 Q15.3 11.8 10.8 13 Z" fill="#c4ccd3"/>
</svg>
